<svg width="31" height="33" viewBox="0 0 31 33" fill="none" xmlns="http://www.w3.org/2000/svg">
<path fill-rule="evenodd" clip-rule="evenodd" d="M26.3933 18.6726C26.8513 18.9339 27.2046 19.3464 27.4532 19.7589C27.9374 20.6114 27.8981 21.6564 27.427 22.5776L26.5111 24.2276C26.0269 25.1076 25.124 25.6576 24.195 25.6576C23.737 25.6576 23.2266 25.5201 22.8079 25.2451C22.4677 25.0114 22.0751 24.9289 21.6564 24.9289C20.361 24.9289 19.2749 26.0701 19.2356 27.4314C19.2356 29.0126 18.0318 30.2501 16.527 30.2501H14.7474C13.2295 30.2501 12.0256 29.0126 12.0256 27.4314C11.9994 26.0701 10.9134 24.9289 9.61792 24.9289C9.1861 24.9289 8.79354 25.0114 8.46641 25.2451C8.04768 25.5201 7.52427 25.6576 7.07937 25.6576C6.13722 25.6576 5.23434 25.1076 4.75018 24.2276L3.84729 22.5776C3.36314 21.6839 3.33697 20.6114 3.82112 19.7589C4.03049 19.3464 4.42305 18.9339 4.86795 18.6726C5.23434 18.4801 5.46987 18.1639 5.69232 17.7926C6.34659 16.6101 5.95403 15.0564 4.84178 14.3551C3.54633 13.5714 3.1276 11.8251 3.87346 10.4639L4.75018 8.84137C5.50913 7.48012 7.13171 6.99887 8.44024 7.79637C9.57866 8.45637 11.0573 8.01637 11.7247 6.84762C11.934 6.46262 12.0518 6.05012 12.0256 5.63762C11.9994 5.10137 12.1434 4.59262 12.392 4.18012C12.8762 3.32762 13.7529 2.77762 14.7081 2.75012H16.5531C17.5214 2.75012 18.3982 3.32762 18.8823 4.18012C19.1179 4.59262 19.2749 5.10137 19.2356 5.63762C19.2094 6.05012 19.3272 6.46262 19.5366 6.84762C20.2039 8.01637 21.6826 8.45637 22.8341 7.79637C24.1295 6.99887 25.7652 7.48012 26.5111 8.84137L27.3878 10.4639C28.1467 11.8251 27.728 13.5714 26.4195 14.3551C25.3072 15.0564 24.9146 16.6101 25.582 17.7926C25.7914 18.1639 26.0269 18.4801 26.3933 18.6726ZM11.9339 16.5139C11.9339 18.6726 13.5957 20.3914 15.6501 20.3914C17.7045 20.3914 19.3271 18.6726 19.3271 16.5139C19.3271 14.3551 17.7045 12.6226 15.6501 12.6226C13.5957 12.6226 11.9339 14.3551 11.9339 16.5139Z" fill="white"/>
</svg>
    