<svg width="31" height="33" viewBox="0 0 31 33" fill="none" xmlns="http://www.w3.org/2000/svg">
<path fill-rule="evenodd" clip-rule="evenodd" d="M9.65592 2.75061H21.6137C25.9684 2.75061 28.4268 5.40299 28.4396 10.0794V22.9219C28.4396 27.5969 25.9684 30.2506 21.6137 30.2506H9.65592C5.30122 30.2506 2.8313 27.5969 2.8313 22.9219V10.0794C2.8313 5.40299 5.30122 2.75061 9.65592 2.75061ZM15.6983 24.5581C16.2502 24.5581 16.7098 24.1181 16.761 23.5269V9.51561C16.8123 9.08936 16.6215 8.66173 16.2758 8.42936C15.916 8.19561 15.4806 8.19561 15.1362 8.42936C14.7892 8.66173 14.5984 9.08936 14.6355 9.51561V23.5269C14.7008 24.1181 15.1605 24.5581 15.6983 24.5581ZM21.5895 24.5581C22.1273 24.5581 22.5869 24.1181 22.6522 23.5269V19.0169C22.6894 18.5755 22.4986 18.1644 22.1516 17.9306C21.8072 17.6969 21.3718 17.6969 21.0133 17.9306C20.6663 18.1644 20.4755 18.5755 20.5267 19.0169V23.5269C20.578 24.1181 21.0376 24.5581 21.5895 24.5581ZM10.7942 23.5269C10.743 24.1181 10.2834 24.5581 9.7315 24.5581C9.18092 24.5581 8.71997 24.1181 8.67004 23.5269V14.0256C8.63162 13.598 8.82241 13.1731 9.1694 12.9394C9.51383 12.7056 9.95045 12.7056 10.2962 12.9394C10.6406 13.1731 10.8339 13.598 10.7942 14.0256V23.5269Z" fill="white"/>
</svg>
