<svg width="30" height="30" viewBox="0 0 40 40" fill="none" xmlns="http://www.w3.org/2000/svg">
<path d="M23.3333 13.3333V9.99999C23.3333 9.11593 22.9821 8.26809 22.357 7.64297C21.7319 7.01785 20.8841 6.66666 20 6.66666H8.33333C7.44928 6.66666 6.60143 7.01785 5.97631 7.64297C5.35119 8.26809 5 9.11593 5 9.99999V30C5 30.884 5.35119 31.7319 5.97631 32.357C6.60143 32.9821 7.44928 33.3333 8.33333 33.3333H20C20.8841 33.3333 21.7319 32.9821 22.357 32.357C22.9821 31.7319 23.3333 30.884 23.3333 30V26.6667" stroke="white" stroke-width="3" stroke-linecap="round" stroke-linejoin="round"/>
<path d="M15 20H35L30 15" stroke="white" stroke-width="3" stroke-linecap="round" stroke-linejoin="round"/>
<path d="M30 25L35 20" stroke="white" stroke-width="3" stroke-linecap="round" stroke-linejoin="round"/>
</svg>
