<svg width="31" height="33" viewBox="0 0 31 33" fill="none" xmlns="http://www.w3.org/2000/svg">
<path fill-rule="evenodd" clip-rule="evenodd" d="M23.0216 11.525H28.4392C28.4392 6.85382 25.8328 4.125 21.4168 4.125H9.85325C5.43723 4.125 2.83087 6.85382 2.83087 11.4654V21.5346C2.83087 26.1462 5.43723 28.875 9.85325 28.875H21.4168C25.8328 28.875 28.4392 26.1462 28.4392 21.5346V21.1056H23.0216C20.5073 21.1056 18.469 18.9716 18.469 16.3391C18.469 13.7067 20.5073 11.5726 23.0216 11.5726V11.525ZM23.0214 13.5746H27.4829C28.011 13.5746 28.439 14.0227 28.439 14.5755V18.0551C28.4328 18.6052 28.0084 19.0496 27.4829 19.056H23.1238C21.851 19.074 20.7379 18.1615 20.4492 16.8635C20.3046 16.0577 20.5076 15.2262 21.0037 14.5918C21.4998 13.9574 22.2384 13.5851 23.0214 13.5746ZM23.2149 17.2329H23.636C24.1766 17.2329 24.6148 16.7741 24.6148 16.2081C24.6148 15.6421 24.1766 15.1833 23.636 15.1833H23.2149C22.9564 15.1801 22.7074 15.2854 22.5235 15.4757C22.3396 15.666 22.2361 15.9254 22.2361 16.1962C22.2361 16.7641 22.6725 17.2263 23.2149 17.2329ZM8.89737 11.525H16.1246C16.6652 11.525 17.1034 11.0662 17.1034 10.5002C17.1034 9.93422 16.6652 9.4754 16.1246 9.4754H8.89737C8.36121 9.47536 7.9248 9.92696 7.91857 10.4883C7.91853 11.0562 8.35496 11.5185 8.89737 11.525Z" fill="white"/>
</svg>
