<svg width="116" height="44" viewBox="0 0 116 44" fill="none" xmlns="http://www.w3.org/2000/svg">
<g filter="url(#filter0_d_668_1688)">
<rect x="6" y="6" width="104" height="32" rx="16" fill="white"/>
<path d="M24.5 9.5C21.1848 9.5 18.0054 10.817 15.6612 13.1612C13.317 15.5054 12 18.6848 12 22C12 25.3152 13.317 28.4946 15.6612 30.8388C18.0054 33.183 21.1848 34.5 24.5 34.5H39.5C42.8152 34.5 45.9946 33.183 48.3388 30.8388C50.683 28.4946 52 25.3152 52 22C52 18.6848 50.683 15.5054 48.3388 13.1612C45.9946 10.817 42.8152 9.5 39.5 9.5H24.5ZM39.5 32C36.8478 32 34.3043 30.9464 32.4289 29.0711C30.5536 27.1957 29.5 24.6522 29.5 22C29.5 19.3478 30.5536 16.8043 32.4289 14.9289C34.3043 13.0536 36.8478 12 39.5 12C42.1522 12 44.6957 13.0536 46.5711 14.9289C48.4464 16.8043 49.5 19.3478 49.5 22C49.5 24.6522 48.4464 27.1957 46.5711 29.0711C44.6957 30.9464 42.1522 32 39.5 32Z" fill="#ff7373"/>
<path d="M67.4084 20.2464C67.3686 19.8454 67.1979 19.5339 66.8963 19.3118C66.5947 19.0897 66.1854 18.9787 65.6683 18.9787C65.317 18.9787 65.0204 19.0284 64.7784 19.1278C64.5365 19.224 64.3509 19.3582 64.2216 19.5305C64.0956 19.7029 64.0327 19.8984 64.0327 20.1172C64.026 20.2995 64.0642 20.4586 64.147 20.5945C64.2332 20.7304 64.3509 20.848 64.5 20.9474C64.6491 21.0436 64.8215 21.1281 65.017 21.201C65.2126 21.2706 65.4214 21.3303 65.6435 21.38L66.5582 21.5987C67.0024 21.6982 67.41 21.8307 67.7812 21.9964C68.1525 22.1622 68.474 22.366 68.7457 22.608C69.0175 22.8499 69.228 23.1349 69.3771 23.4631C69.5296 23.7912 69.6075 24.1674 69.6108 24.5916C69.6075 25.2147 69.4484 25.755 69.1335 26.2124C68.822 26.6664 68.3712 27.0194 67.7812 27.2713C67.1946 27.5199 66.487 27.6442 65.6584 27.6442C64.8364 27.6442 64.1205 27.5182 63.5107 27.2663C62.9041 27.0144 62.4302 26.6416 62.0888 26.1477C61.7507 25.6506 61.5734 25.0357 61.5568 24.3033H63.6399C63.6631 24.6446 63.7609 24.9297 63.9332 25.1584C64.1089 25.3838 64.3426 25.5545 64.6342 25.6705C64.9292 25.7831 65.2623 25.8395 65.6335 25.8395C65.9981 25.8395 66.3146 25.7865 66.5831 25.6804C66.8549 25.5743 67.0653 25.4268 67.2145 25.2379C67.3636 25.049 67.4382 24.8319 67.4382 24.5866C67.4382 24.358 67.3703 24.1657 67.2344 24.0099C67.1018 23.8542 66.9063 23.7216 66.6477 23.6122C66.3925 23.5028 66.0793 23.4034 65.7081 23.3139L64.5994 23.0355C63.741 22.8267 63.0632 22.5002 62.5661 22.0561C62.0689 21.612 61.822 21.0137 61.8253 20.2614C61.822 19.6449 61.986 19.1063 62.3175 18.6456C62.6522 18.1849 63.1113 17.8253 63.6946 17.5668C64.2779 17.3082 64.9408 17.179 65.6832 17.179C66.4389 17.179 67.0985 17.3082 67.6619 17.5668C68.2287 17.8253 68.6695 18.1849 68.9844 18.6456C69.2992 19.1063 69.4616 19.6399 69.4716 20.2464H67.4084ZM70.671 19.093V17.3182H79.0332V19.093H75.916V27.5H73.7882V19.093H70.671ZM89.302 22.4091C89.302 23.5194 89.0916 24.464 88.6706 25.2429C88.253 26.0218 87.6829 26.6167 86.9604 27.0277C86.2412 27.4354 85.4325 27.6392 84.5343 27.6392C83.6294 27.6392 82.8174 27.4337 82.0982 27.0227C81.379 26.6117 80.8105 26.0168 80.3929 25.2379C79.9753 24.459 79.7665 23.5161 79.7665 22.4091C79.7665 21.2988 79.9753 20.3542 80.3929 19.5753C80.8105 18.7964 81.379 18.2031 82.0982 17.7955C82.8174 17.3845 83.6294 17.179 84.5343 17.179C85.4325 17.179 86.2412 17.3845 86.9604 17.7955C87.6829 18.2031 88.253 18.7964 88.6706 19.5753C89.0916 20.3542 89.302 21.2988 89.302 22.4091ZM87.1195 22.4091C87.1195 21.6899 87.0118 21.0833 86.7963 20.5895C86.5842 20.0956 86.2843 19.7211 85.8965 19.4659C85.5087 19.2107 85.0546 19.0831 84.5343 19.0831C84.0139 19.0831 83.5598 19.2107 83.1721 19.4659C82.7843 19.7211 82.4827 20.0956 82.2672 20.5895C82.0551 21.0833 81.949 21.6899 81.949 22.4091C81.949 23.1283 82.0551 23.7348 82.2672 24.2287C82.4827 24.7225 82.7843 25.0971 83.1721 25.3523C83.5598 25.6075 84.0139 25.7351 84.5343 25.7351C85.0546 25.7351 85.5087 25.6075 85.8965 25.3523C86.2843 25.0971 86.5842 24.7225 86.7963 24.2287C87.0118 23.7348 87.1195 23.1283 87.1195 22.4091ZM90.8967 27.5V17.3182H94.9137C95.686 17.3182 96.3439 17.4657 96.8874 17.7607C97.431 18.0523 97.8453 18.4583 98.1303 18.9787C98.4187 19.4957 98.5629 20.0923 98.5629 20.7685C98.5629 21.4446 98.417 22.0412 98.1254 22.5582C97.8337 23.0753 97.4111 23.478 96.8576 23.7663C96.3074 24.0547 95.6412 24.1989 94.859 24.1989H92.2987V22.4737H94.511C94.9253 22.4737 95.2667 22.4025 95.5352 22.2599C95.8069 22.1141 96.0091 21.9136 96.1417 21.6584C96.2776 21.3999 96.3455 21.1032 96.3455 20.7685C96.3455 20.4304 96.2776 20.1354 96.1417 19.8835C96.0091 19.6283 95.8069 19.4311 95.5352 19.2919C95.2634 19.1494 94.9187 19.0781 94.5011 19.0781H93.0494V27.5H90.8967Z" fill="#ff7373"/>
</g>
<defs>
<filter id="filter0_d_668_1688" x="0" y="0" width="116" height="44" filterUnits="userSpaceOnUse" color-interpolation-filters="sRGB">
<feFlood flood-opacity="0" result="BackgroundImageFix"/>
<feColorMatrix in="SourceAlpha" type="matrix" values="0 0 0 0 0 0 0 0 0 0 0 0 0 0 0 0 0 0 127 0" result="hardAlpha"/>
<feOffset/>
<feGaussianBlur stdDeviation="3"/>
<feComposite in2="hardAlpha" operator="out"/>
<feColorMatrix type="matrix" values="0 0 0 0 0 0 0 0 0 0 0 0 0 0 0 0 0 0 0.25 0"/>
<feBlend mode="normal" in2="BackgroundImageFix" result="effect1_dropShadow_668_1688"/>
<feBlend mode="normal" in="SourceGraphic" in2="effect1_dropShadow_668_1688" result="shape"/>
</filter>
</defs>
</svg>
