<svg width="116" height="44" viewBox="0 0 116 44" fill="none" xmlns="http://www.w3.org/2000/svg">
<g filter="url(#filter0_d_668_1690)">
<rect x="6" y="6" width="104" height="32" rx="16" fill="white"/>
<path d="M39.5 34.5C42.8152 34.5 45.9946 33.183 48.3388 30.8388C50.683 28.4946 52 25.3152 52 22C52 18.6848 50.683 15.5054 48.3388 13.1612C45.9946 10.817 42.8152 9.5 39.5 9.5L24.5 9.5C21.1848 9.5 18.0054 10.817 15.6612 13.1612C13.317 15.5054 12 18.6848 12 22C12 25.3152 13.317 28.4946 15.6612 30.8388C18.0054 33.183 21.1848 34.5 24.5 34.5H39.5ZM24.5 12C27.1522 12 29.6957 13.0536 31.5711 14.9289C33.4464 16.8043 34.5 19.3478 34.5 22C34.5 24.6522 33.4464 27.1957 31.5711 29.0711C29.6957 30.9464 27.1522 32 24.5 32C21.8478 32 19.3043 30.9464 17.4289 29.0711C15.5536 27.1957 14.5 24.6522 14.5 22C14.5 19.3478 15.5536 16.8043 17.4289 14.9289C19.3043 13.0536 21.8478 12 24.5 12Z" fill="#0C862E"/>
<path d="M64.4084 20.7464C64.3686 20.3454 64.1979 20.0339 63.8963 19.8118C63.5947 19.5897 63.1854 19.4787 62.6683 19.4787C62.317 19.4787 62.0204 19.5284 61.7784 19.6278C61.5365 19.724 61.3509 19.8582 61.2216 20.0305C61.0956 20.2029 61.0327 20.3984 61.0327 20.6172C61.026 20.7995 61.0642 20.9586 61.147 21.0945C61.2332 21.2304 61.3509 21.348 61.5 21.4474C61.6491 21.5436 61.8215 21.6281 62.017 21.701C62.2126 21.7706 62.4214 21.8303 62.6435 21.88L63.5582 22.0987C64.0024 22.1982 64.41 22.3307 64.7812 22.4964C65.1525 22.6622 65.474 22.866 65.7457 23.108C66.0175 23.3499 66.228 23.6349 66.3771 23.9631C66.5296 24.2912 66.6075 24.6674 66.6108 25.0916C66.6075 25.7147 66.4484 26.255 66.1335 26.7124C65.822 27.1664 65.3712 27.5194 64.7812 27.7713C64.1946 28.0199 63.487 28.1442 62.6584 28.1442C61.8364 28.1442 61.1205 28.0182 60.5107 27.7663C59.9041 27.5144 59.4302 27.1416 59.0888 26.6477C58.7507 26.1506 58.5734 25.5357 58.5568 24.8033H60.6399C60.6631 25.1446 60.7609 25.4297 60.9332 25.6584C61.1089 25.8838 61.3426 26.0545 61.6342 26.1705C61.9292 26.2831 62.2623 26.3395 62.6335 26.3395C62.9981 26.3395 63.3146 26.2865 63.5831 26.1804C63.8549 26.0743 64.0653 25.9268 64.2145 25.7379C64.3636 25.549 64.4382 25.3319 64.4382 25.0866C64.4382 24.858 64.3703 24.6657 64.2344 24.5099C64.1018 24.3542 63.9063 24.2216 63.6477 24.1122C63.3925 24.0028 63.0793 23.9034 62.7081 23.8139L61.5994 23.5355C60.741 23.3267 60.0632 23.0002 59.5661 22.5561C59.0689 22.112 58.822 21.5137 58.8253 20.7614C58.822 20.1449 58.986 19.6063 59.3175 19.1456C59.6522 18.6849 60.1113 18.3253 60.6946 18.0668C61.2779 17.8082 61.9408 17.679 62.6832 17.679C63.4389 17.679 64.0985 17.8082 64.6619 18.0668C65.2287 18.3253 65.6695 18.6849 65.9844 19.1456C66.2992 19.6063 66.4616 20.1399 66.4716 20.7464H64.4084ZM67.671 19.593V17.8182H76.0332V19.593H72.916V28H70.7882V19.593H67.671ZM77.9212 28H75.6143L79.1293 17.8182H81.9034L85.4134 28H83.1065L80.5561 20.1449H80.4766L77.9212 28ZM77.777 23.9979H83.2259V25.6783H77.777V23.9979ZM86.6388 28V17.8182H90.6559C91.4248 17.8182 92.0811 17.9557 92.6246 18.2308C93.1715 18.5026 93.5875 18.8887 93.8725 19.3892C94.1609 19.8864 94.305 20.4714 94.305 21.1442C94.305 21.8203 94.1592 22.402 93.8675 22.8892C93.5759 23.3731 93.1533 23.7443 92.5998 24.0028C92.0496 24.2614 91.3834 24.3906 90.6012 24.3906H87.9116V22.6605H90.2532C90.6642 22.6605 91.0056 22.6042 91.2773 22.4915C91.5491 22.3788 91.7513 22.2098 91.8839 21.9844C92.0198 21.759 92.0877 21.4789 92.0877 21.1442C92.0877 20.8061 92.0198 20.5211 91.8839 20.2891C91.7513 20.0571 91.5475 19.8814 91.2724 19.7621C91.0006 19.6394 90.6576 19.5781 90.2433 19.5781H88.7915V28H86.6388ZM92.1374 23.3665L94.668 28H92.2915L89.8157 23.3665H92.1374ZM95.4386 19.593V17.8182H103.801V19.593H100.684V28H98.5558V19.593H95.4386Z" fill="#0C862E"/>
</g>
<defs>
<filter id="filter0_d_668_1690" x="0" y="0" width="116" height="44" filterUnits="userSpaceOnUse" color-interpolation-filters="sRGB">
<feFlood flood-opacity="0" result="BackgroundImageFix"/>
<feColorMatrix in="SourceAlpha" type="matrix" values="0 0 0 0 0 0 0 0 0 0 0 0 0 0 0 0 0 0 127 0" result="hardAlpha"/>
<feOffset/>
<feGaussianBlur stdDeviation="3"/>
<feComposite in2="hardAlpha" operator="out"/>
<feColorMatrix type="matrix" values="0 0 0 0 0 0 0 0 0 0 0 0 0 0 0 0 0 0 0.25 0"/>
<feBlend mode="normal" in2="BackgroundImageFix" result="effect1_dropShadow_668_1690"/>
<feBlend mode="normal" in="SourceGraphic" in2="effect1_dropShadow_668_1690" result="shape"/>
</filter>
</defs>
</svg>
