<svg width="31" height="33" viewBox="0 0 31 33" fill="none" xmlns="http://www.w3.org/2000/svg">
        <path fill-rule="evenodd" clip-rule="evenodd" d="M10.2701 2.75H21.0012C24.9565 2.75 27.1588 5.1975 27.1588 9.39125V23.595C27.1588 27.8575 24.9565 30.25 21.0012 30.25H10.2701C6.3776 30.25 4.11127 27.8575 4.11127 23.595V9.39125C4.11127 5.1975 6.3776 2.75 10.2701 2.75ZM10.616 9.15751V9.14376H14.4431C14.995 9.14376 15.4431 9.62501 15.4431 10.2149C15.4431 10.8213 14.995 11.3025 14.4431 11.3025H10.616C10.0641 11.3025 9.61724 10.8213 9.61724 10.23C9.61724 9.63876 10.0641 9.15751 10.616 9.15751ZM10.616 17.5175H20.6544C21.205 17.5175 21.6532 17.0362 21.6532 16.445C21.6532 15.8537 21.205 15.3711 20.6544 15.3711H10.616C10.0641 15.3711 9.61724 15.8537 9.61724 16.445C9.61724 17.0362 10.0641 17.5175 10.616 17.5175ZM10.6158 23.8013H20.6543C21.1652 23.7463 21.5506 23.2774 21.5506 22.7288C21.5506 22.165 21.1652 21.6975 20.6543 21.6425H10.6158C10.2317 21.6013 9.86037 21.7938 9.65551 22.1513C9.45064 22.495 9.45064 22.9488 9.65551 23.3063C9.86037 23.65 10.2317 23.8563 10.6158 23.8013Z" fill="white"/>
        </svg>