<svg width="44" height="44" viewBox="0 0 48 48" fill="none" xmlns="http://www.w3.org/2000/svg">
<path d="M10 12C10 11.4696 10.2107 10.9609 10.5858 10.5858C10.9609 10.2107 11.4696 10 12 10H16C16.5304 10 17.0391 10.2107 17.4142 10.5858C17.7893 10.9609 18 11.4696 18 12V16C18 16.5304 17.7893 17.0391 17.4142 17.4142C17.0391 17.7893 16.5304 18 16 18H12C11.4696 18 10.9609 17.7893 10.5858 17.4142C10.2107 17.0391 10 16.5304 10 16V12ZM20 12C20 11.4696 20.2107 10.9609 20.5858 10.5858C20.9609 10.2107 21.4696 10 22 10H26C26.5304 10 27.0391 10.2107 27.4142 10.5858C27.7893 10.9609 28 11.4696 28 12V16C28 16.5304 27.7893 17.0391 27.4142 17.4142C27.0391 17.7893 26.5304 18 26 18H22C21.4696 18 20.9609 17.7893 20.5858 17.4142C20.2107 17.0391 20 16.5304 20 16V12ZM30 12C30 11.4696 30.2107 10.9609 30.5858 10.5858C30.9609 10.2107 31.4696 10 32 10H36C36.5304 10 37.0391 10.2107 37.4142 10.5858C37.7893 10.9609 38 11.4696 38 12V16C38 16.5304 37.7893 17.0391 37.4142 17.4142C37.0391 17.7893 36.5304 18 36 18H32C31.4696 18 30.9609 17.7893 30.5858 17.4142C30.2107 17.0391 30 16.5304 30 16V12ZM10 22C10 21.4696 10.2107 20.9609 10.5858 20.5858C10.9609 20.2107 11.4696 20 12 20H16C16.5304 20 17.0391 20.2107 17.4142 20.5858C17.7893 20.9609 18 21.4696 18 22V26C18 26.5304 17.7893 27.0391 17.4142 27.4142C17.0391 27.7893 16.5304 28 16 28H12C11.4696 28 10.9609 27.7893 10.5858 27.4142C10.2107 27.0391 10 26.5304 10 26V22ZM20 22C20 21.4696 20.2107 20.9609 20.5858 20.5858C20.9609 20.2107 21.4696 20 22 20H26C26.5304 20 27.0391 20.2107 27.4142 20.5858C27.7893 20.9609 28 21.4696 28 22V26C28 26.5304 27.7893 27.0391 27.4142 27.4142C27.0391 27.7893 26.5304 28 26 28H22C21.4696 28 20.9609 27.7893 20.5858 27.4142C20.2107 27.0391 20 26.5304 20 26V22ZM30 22C30 21.4696 30.2107 20.9609 30.5858 20.5858C30.9609 20.2107 31.4696 20 32 20H36C36.5304 20 37.0391 20.2107 37.4142 20.5858C37.7893 20.9609 38 21.4696 38 22V26C38 26.5304 37.7893 27.0391 37.4142 27.4142C37.0391 27.7893 36.5304 28 36 28H32C31.4696 28 30.9609 27.7893 30.5858 27.4142C30.2107 27.0391 30 26.5304 30 26V22ZM10 32C10 31.4696 10.2107 30.9609 10.5858 30.5858C10.9609 30.2107 11.4696 30 12 30H16C16.5304 30 17.0391 30.2107 17.4142 30.5858C17.7893 30.9609 18 31.4696 18 32V36C18 36.5304 17.7893 37.0391 17.4142 37.4142C17.0391 37.7893 16.5304 38 16 38H12C11.4696 38 10.9609 37.7893 10.5858 37.4142C10.2107 37.0391 10 36.5304 10 36V32ZM20 32C20 31.4696 20.2107 30.9609 20.5858 30.5858C20.9609 30.2107 21.4696 30 22 30H26C26.5304 30 27.0391 30.2107 27.4142 30.5858C27.7893 30.9609 28 31.4696 28 32V36C28 36.5304 27.7893 37.0391 27.4142 37.4142C27.0391 37.7893 26.5304 38 26 38H22C21.4696 38 20.9609 37.7893 20.5858 37.4142C20.2107 37.0391 20 36.5304 20 36V32ZM30 32C30 31.4696 30.2107 30.9609 30.5858 30.5858C30.9609 30.2107 31.4696 30 32 30H36C36.5304 30 37.0391 30.2107 37.4142 30.5858C37.7893 30.9609 38 31.4696 38 32V36C38 36.5304 37.7893 37.0391 37.4142 37.4142C37.0391 37.7893 36.5304 38 36 38H32C31.4696 38 30.9609 37.7893 30.5858 37.4142C30.2107 37.0391 30 36.5304 30 36V32Z" fill="#FF7373"/>
</svg>
