<svg width="44" height="44" viewBox="0 0 44 44" fill="none" xmlns="http://www.w3.org/2000/svg">
<path d="M16.1667 8.875C16.5384 8.87541 16.8959 9.01774 17.1662 9.2729C17.4364 9.52807 17.5991 9.87681 17.6209 10.2479C17.6427 10.6189 17.5219 10.9843 17.2834 11.2693C17.0448 11.5544 16.7064 11.7376 16.3373 11.7815L16.1667 11.7917H13.25C12.8928 11.7917 12.548 11.9229 12.2811 12.1602C12.0142 12.3976 11.8437 12.7246 11.8019 13.0794L11.7917 13.25V16.1667C11.7913 16.5384 11.6489 16.8959 11.3938 17.1662C11.1386 17.4364 10.7899 17.5991 10.4188 17.6209C10.0477 17.6427 9.68236 17.5219 9.39733 17.2834C9.11229 17.0448 8.92911 16.7064 8.88521 16.3373L8.875 16.1667V13.25C8.87494 12.1341 9.30131 11.0603 10.0669 10.2484C10.8324 9.43645 11.8793 8.94776 12.9933 8.88229L13.25 8.875H16.1667Z" fill="#FF7373"/>
<path d="M10.3333 26.375C10.6905 26.375 11.0353 26.5062 11.3022 26.7435C11.5691 26.9809 11.7397 27.308 11.7815 27.6627L11.7917 27.8333V30.75C11.7917 31.1072 11.9229 31.4519 12.1602 31.7189C12.3976 31.9858 12.7246 32.1563 13.0794 32.1981L13.25 32.2083H16.1667C16.5384 32.2087 16.8959 32.3511 17.1662 32.6062C17.4364 32.8614 17.5991 33.2101 17.6209 33.5812C17.6427 33.9523 17.5219 34.3176 17.2834 34.6027C17.0448 34.8877 16.7064 35.0709 16.3373 35.1148L16.1667 35.125H13.25C12.1341 35.1251 11.0603 34.6987 10.2484 33.9331C9.43645 33.1676 8.94776 32.1207 8.88229 31.0067L8.875 30.75V27.8333C8.875 27.4466 9.02865 27.0756 9.30214 26.8021C9.57563 26.5286 9.94656 26.375 10.3333 26.375Z" fill="#FF7373"/>
<path d="M30.7498 8.875C31.8658 8.87494 32.9396 9.30131 33.7515 10.0669C34.5634 10.8324 35.0521 11.8793 35.1176 12.9933L35.1248 13.25V16.1667C35.1244 16.5384 34.9821 16.8959 34.7269 17.1662C34.4718 17.4364 34.123 17.5991 33.752 17.6209C33.3809 17.6427 33.0155 17.5219 32.7305 17.2834C32.4455 17.0448 32.2623 16.7064 32.2184 16.3373L32.2082 16.1667V13.25C32.2081 12.8928 32.077 12.548 31.8396 12.2811C31.6023 12.0142 31.2752 11.8437 30.9205 11.8019L30.7498 11.7917H27.8332C27.4615 11.7913 27.104 11.6489 26.8337 11.3938C26.5634 11.1386 26.4008 10.7899 26.379 10.4188C26.3572 10.0477 26.4779 9.68236 26.7165 9.39733C26.9551 9.11229 27.2935 8.92911 27.6626 8.88521L27.8332 8.875H30.7498Z" fill="#FF7373"/>
<path d="M33.6665 26.375C34.0237 26.375 34.3685 26.5062 34.6354 26.7435C34.9023 26.9809 35.0728 27.308 35.1146 27.6627L35.1248 27.8333V30.75C35.1249 31.8659 34.6985 32.9397 33.933 33.7516C33.1674 34.5636 32.1205 35.0522 31.0065 35.1177L30.7498 35.125H27.8332C27.4615 35.1246 27.104 34.9823 26.8337 34.7271C26.5634 34.4719 26.4008 34.1232 26.379 33.7521C26.3572 33.3811 26.4779 33.0157 26.7165 32.7307C26.9551 32.4456 27.2935 32.2624 27.6626 32.2185L27.8332 32.2083H30.7498C31.107 32.2083 31.4518 32.0771 31.7187 31.8398C31.9857 31.6024 32.1562 31.2754 32.198 30.9206L32.2082 30.75V27.8333C32.2082 27.4466 32.3618 27.0756 32.6353 26.8021C32.9088 26.5286 33.2797 26.375 33.6665 26.375Z" fill="#FF7373"/>
<path d="M21.9998 16.1667C23.1411 16.1667 24.2574 16.5015 25.2103 17.1297C26.1632 17.7578 26.9109 18.6517 27.3608 19.7005C27.8107 20.7494 27.943 21.9072 27.7414 23.0306C27.5398 24.1539 27.0131 25.1935 26.2265 26.0204C25.4399 26.8474 24.428 27.4254 23.3161 27.683C22.2043 27.9405 21.0413 27.8662 19.9712 27.4693C18.9012 27.0724 17.971 26.3703 17.296 25.45C16.6211 24.5297 16.2309 23.4316 16.1738 22.2917L16.1665 22.0001L16.1738 21.7084C16.2486 20.2137 16.8951 18.8049 17.9795 17.7734C19.0639 16.742 20.5032 16.1667 21.9998 16.1667Z" fill="#FF7373"/>
</svg>
