<svg width="44" height="44" viewBox="0 0 44 44" fill="none" xmlns="http://www.w3.org/2000/svg">
<path d="M30.6748 28.5866L37 34.9103L34.9103 37L28.5866 30.6748C26.2336 32.561 23.307 33.5869 20.2913 33.5827C12.9545 33.5827 7 27.6281 7 20.2913C7 12.9545 12.9545 7 20.2913 7C27.6281 7 33.5827 12.9545 33.5827 20.2913C33.5869 23.307 32.561 26.2336 30.6748 28.5866ZM27.7123 27.4908C29.5862 25.5631 30.6328 22.9797 30.629 20.2913C30.629 14.5805 26.0022 9.95363 20.2913 9.95363C14.5805 9.95363 9.95363 14.5805 9.95363 20.2913C9.95363 26.0022 14.5805 30.629 20.2913 30.629C22.9797 30.6328 25.5631 29.5862 27.4908 27.7123L27.7123 27.4908ZM14.3841 18.8145H26.1986V21.7681H14.3841V18.8145Z" fill="#FF7373"/>
</svg>
