<svg width="44" height="44" viewBox="0 0 44 44" fill="none" xmlns="http://www.w3.org/2000/svg">
<path d="M19.8746 7.8335C22.0963 7.83334 24.2747 8.44783 26.1689 9.60896C28.063 10.7701 29.5989 12.4326 30.6068 14.4125C31.6146 16.3925 32.0551 18.6126 31.8794 20.8274C31.7037 23.0421 30.9188 25.1651 29.6114 26.9613L29.3323 27.3297L34.506 32.5033C34.7627 32.7577 34.9126 33.1006 34.9248 33.4618C34.9371 33.823 34.8108 34.1752 34.5719 34.4464C34.3329 34.7176 33.9994 34.8872 33.6395 34.9204C33.2796 34.9537 32.9206 34.8482 32.636 34.6255L32.5028 34.5065L27.3291 29.3328C25.821 30.5214 24.0505 31.332 22.1654 31.6971C20.2803 32.0622 18.3352 31.9713 16.4924 31.4318C14.6495 30.8923 12.9625 29.9199 11.5719 28.5958C10.1813 27.2717 9.12752 25.6342 8.49848 23.82C7.86944 22.0058 7.68337 20.0675 7.9558 18.1667C8.22822 16.266 8.95125 14.458 10.0645 12.8935C11.1778 11.329 12.6491 10.0534 14.3557 9.17323C16.0622 8.29301 17.9545 7.83366 19.8746 7.8335ZM19.8746 10.6668C17.4324 10.6668 15.0902 11.637 13.3634 13.3639C11.6365 15.0908 10.6663 17.433 10.6663 19.8752C10.6663 22.3174 11.6365 24.6595 13.3634 26.3864C15.0902 28.1133 17.4324 29.0835 19.8746 29.0835C22.3168 29.0835 24.659 28.1133 26.3859 26.3864C28.1128 24.6595 29.083 22.3174 29.083 19.8752C29.083 17.433 28.1128 15.0908 26.3859 13.3639C24.659 11.637 22.3168 10.6668 19.8746 10.6668ZM19.8746 13.5002C20.2216 13.5002 20.5565 13.6276 20.8158 13.8582C21.0751 14.0888 21.2408 14.4065 21.2814 14.7511L21.2913 14.9168V18.4585H24.833C25.194 18.4589 25.5413 18.5972 25.8039 18.845C26.0665 19.0929 26.2245 19.4317 26.2456 19.7921C26.2668 20.1526 26.1495 20.5075 25.9178 20.7844C25.686 21.0613 25.3573 21.2393 24.9987 21.2819L24.833 21.2918H21.2913V24.8335C21.2909 25.1946 21.1526 25.5419 20.9048 25.8044C20.6569 26.067 20.3181 26.225 19.9577 26.2462C19.5972 26.2673 19.2423 26.15 18.9654 25.9183C18.6885 25.6865 18.5105 25.3578 18.4679 24.9992L18.458 24.8335V21.2918H14.9163C14.5552 21.2914 14.2079 21.1532 13.9454 20.9053C13.6828 20.6574 13.5248 20.3186 13.5036 19.9582C13.4825 19.5977 13.5997 19.2428 13.8315 18.9659C14.0633 18.689 14.392 18.5111 14.7505 18.4684L14.9163 18.4585H18.458V14.9168C18.458 14.5411 18.6072 14.1808 18.8729 13.9151C19.1386 13.6494 19.4989 13.5002 19.8746 13.5002Z" fill="#FF7373"/>
</svg>
